<?xml version="1.0" standalone="no"?>
<!DOCTYPE svg PUBLIC "-//W3C//DTD SVG 20010904//EN"
 "http://www.w3.org/TR/2001/REC-SVG-20010904/DTD/svg10.dtd">
<svg version="1.0" xmlns="http://www.w3.org/2000/svg"
 width="1280.000000pt" height="960.000000pt" viewBox="0 0 1280.000000 960.000000"
 preserveAspectRatio="xMidYMid meet">
<metadata>
Created by potrace 1.15, written by Peter Selinger 2001-2017
</metadata>
<g transform="translate(0.000000,960.000000) scale(0.100000,-0.100000)"
fill="#000000" stroke="none">
<path d="M4249 6720 c-116 -10 -358 -68 -454 -108 -38 -16 -132 -61 -207 -99
-155 -80 -238 -105 -418 -129 -111 -14 -149 -15 -340 -3 -234 14 -337 14 -505
-2 -96 -8 -302 -41 -345 -54 -8 -2 -123 -16 -255 -30 -228 -25 -257 -26 -600
-20 -347 6 -903 28 -1052 41 l-73 7 0 -1458 0 -1457 23 6 c12 4 49 14 82 22
33 8 110 30 170 49 155 48 393 108 602 152 172 37 184 38 369 37 338 -2 561
-32 755 -103 288 -105 636 -179 1089 -231 47 -6 126 -15 175 -20 167 -20 384
-70 582 -136 234 -77 355 -108 483 -123 131 -16 455 -68 570 -92 108 -23 204
-41 340 -64 52 -9 108 -21 124 -26 25 -8 318 -59 601 -104 126 -20 350 -76
481 -120 113 -38 243 -65 313 -65 77 0 238 47 356 105 61 29 165 69 232 89
123 36 192 61 248 90 70 35 442 183 590 233 421 144 520 181 650 243 77 36
160 79 185 95 55 36 175 102 299 166 52 26 103 56 115 66 12 10 37 29 56 43
19 13 60 45 90 71 62 52 208 149 273 180 48 23 68 34 187 104 47 28 101 59
120 69 66 36 285 184 412 279 70 53 160 113 200 135 245 131 296 162 366 221
161 136 357 273 492 343 74 38 144 78 155 88 11 10 36 25 56 33 48 20 76 62
101 149 41 146 -3 277 -122 362 -28 20 -48 40 -46 45 3 5 19 11 36 15 67 13
92 155 45 251 -66 136 -180 192 -411 202 -148 7 -244 -9 -349 -56 -65 -30
-303 -182 -370 -237 -40 -32 -47 -34 -158 -44 -163 -14 -253 -45 -380 -129
-56 -38 -136 -86 -177 -107 -57 -30 -103 -66 -192 -153 -65 -63 -134 -124
-155 -136 -21 -13 -74 -30 -118 -39 -125 -26 -168 -41 -304 -110 -221 -113
-394 -193 -451 -208 -70 -20 -189 -23 -194 -6 -2 7 -9 39 -16 70 -29 131 -138
272 -263 342 -95 53 -349 117 -643 161 -252 37 -391 33 -511 -16 -29 -12 -33
-11 -66 18 -38 33 -233 109 -369 143 -45 12 -119 33 -163 48 -76 26 -85 32
-185 132 -58 58 -146 153 -195 210 -172 200 -330 301 -585 376 -69 20 -173 51
-232 70 -140 44 -675 122 -848 123 -63 1 -128 3 -145 5 -16 2 -73 0 -126 -4z"/>
</g>
</svg>
